<svg width="53" height="34" viewBox="0 0 53 34" fill="none" xmlns="http://www.w3.org/2000/svg">
<path d="M20.1572 3.35175C18.7122 3.35175 17.4949 3.86639 16.5052 4.89567C15.5155 5.92495 15.0207 7.17196 15.0207 8.6367C15.0207 10.1014 15.5155 11.3485 16.5052 12.3777C17.4949 13.3872 18.7122 13.892 20.1572 13.892C21.6021 13.892 22.8195 13.3872 23.8092 12.3777C24.7988 11.3485 25.2937 10.1014 25.2937 8.6367C25.2937 7.17196 24.7988 5.92495 23.8092 4.89567C22.8195 3.86639 21.6021 3.35175 20.1572 3.35175ZM20.1572 16.1485C17.9799 16.1485 16.1588 15.4359 14.6941 14.0107C13.2294 12.5658 12.497 10.7744 12.497 8.6367C12.497 6.49897 13.2294 4.71752 14.6941 3.29237C16.1588 1.84742 17.9799 1.12495 20.1572 1.12495C22.3345 1.12495 24.1555 1.84742 25.6203 3.29237C27.085 4.71752 27.8174 6.49897 27.8174 8.6367C27.8174 10.7744 27.0751 12.5559 25.5906 13.981C24.1061 15.426 22.2949 16.1485 20.1572 16.1485ZM32.8723 5.13319C32.8723 5.7468 33.0999 6.19216 33.5552 6.46928C34.0105 6.80577 34.9803 7.15216 36.4649 7.50845C38.0286 7.88454 39.1667 8.39917 39.8793 9.05237C40.6117 9.70557 40.9779 10.6458 40.9779 11.873C40.9779 13.1596 40.4929 14.1988 39.523 14.9905C38.5729 15.7823 37.3259 16.1781 35.782 16.1781C33.5453 16.1781 31.5263 15.3864 29.7251 13.8029L31.269 11.9621C32.7733 13.2487 34.2975 13.892 35.8414 13.892C36.6133 13.892 37.2368 13.7237 37.7119 13.3872C38.1869 13.0309 38.4245 12.5757 38.4245 12.0214C38.4245 11.4672 38.2067 11.0318 37.7713 10.7151C37.3556 10.3984 36.6034 10.1113 35.5148 9.85402C33.6344 9.41856 32.328 8.90392 31.5956 8.3101C30.7445 7.65691 30.3189 6.65732 30.3189 5.31134C30.3189 4.00495 30.794 2.98557 31.7441 2.2532C32.6942 1.50103 33.9115 1.12495 35.396 1.12495C37.3952 1.12495 39.1074 1.70886 40.5325 2.8767L39.2261 4.71752C38.7907 4.32165 38.2067 4.00495 37.4744 3.76742C36.742 3.5101 36.0195 3.38144 35.3069 3.38144C34.5746 3.38144 33.9808 3.53979 33.5255 3.85649C33.09 4.1534 32.8723 4.57897 32.8723 5.13319ZM2.84397 18.4812H5.3083V33H2.84397V18.4812ZM17.7746 27.7151L21.575 33H18.4575L14.9836 28.101H11.777V33H9.31272V18.4812H14.7164C16.9135 18.4812 18.4872 18.8573 19.4373 19.6095C20.4072 20.3419 20.8921 21.5394 20.8921 23.2021C20.8921 25.5971 19.8529 27.1014 17.7746 27.7151ZM14.8055 25.9039C16.1713 25.9039 17.1115 25.6961 17.6261 25.2804C18.1408 24.8647 18.3981 24.1621 18.3981 23.1724C18.3981 22.2223 18.1408 21.579 17.6261 21.2425C17.1115 20.8862 16.1911 20.708 14.8649 20.708H11.777V25.9039H14.8055ZM24.444 18.4812H26.9083V33H24.444V18.4812ZM32.8723 22.1332C32.8723 22.7468 33.0999 23.1922 33.5552 23.4693C34.0105 23.8058 34.9803 24.1522 36.4649 24.5085C38.0286 24.8845 39.1667 25.3992 39.8793 26.0524C40.6117 26.7056 40.9779 27.6458 40.9779 28.873C40.9779 30.1596 40.4929 31.1988 39.523 31.9905C38.5729 32.7823 37.3259 33.1781 35.782 33.1781C33.5453 33.1781 31.5263 32.3864 29.7251 30.8029L31.269 28.9621C32.7733 30.2487 34.2975 30.892 35.8414 30.892C36.6133 30.892 37.2368 30.7237 37.7119 30.3872C38.1869 30.0309 38.4245 29.5757 38.4245 29.0214C38.4245 28.4672 38.2067 28.0318 37.7713 27.7151C37.3556 27.3984 36.6034 27.1113 35.5148 26.854C33.6344 26.4186 32.328 25.9039 31.5956 25.3101C30.7445 24.6569 30.3189 23.6573 30.3189 22.3113C30.3189 21.0049 30.794 19.9856 31.7441 19.2532C32.6942 18.501 33.9115 18.1249 35.396 18.1249C37.3952 18.1249 39.1074 18.7089 40.5325 19.8767L39.2261 21.7175C38.7907 21.3216 38.2067 21.0049 37.4744 20.7674C36.742 20.5101 36.0195 20.3814 35.3069 20.3814C34.5746 20.3814 33.9808 20.5398 33.5255 20.8565C33.09 21.1534 32.8723 21.579 32.8723 22.1332Z" fill="#C2C2C2"/>
<rect x="43.2002" y="1.65039" width="9.45" height="31.2" rx="1.575" fill="#D9D9D9"/>
<path d="M50.7008 4.46476C50.7008 4.33456 50.6651 4.23376 50.5937 4.16236C50.5181 4.09516 50.4152 4.06156 50.285 4.06156L46.6184 4.06156C46.484 4.06156 46.3832 4.09726 46.316 4.16866C46.2446 4.24006 46.2089 4.34086 46.2089 4.47106L46.2089 5.98936C46.2089 6.47656 46.3307 6.85246 46.5743 7.11706C46.8179 7.38166 47.1581 7.51396 47.5949 7.51396C48.0317 7.51396 48.374 7.38166 48.6218 7.11706C48.8654 6.85246 48.9872 6.47656 48.9872 5.98936L48.9872 4.86796L50.285 4.86796C50.4152 4.86796 50.5181 4.83436 50.5937 4.76716C50.6651 4.69996 50.7008 4.59916 50.7008 4.46476ZM48.3509 4.86796L48.3509 5.86336C48.3509 6.14896 48.2879 6.36526 48.1619 6.51226C48.0317 6.65926 47.8427 6.73276 47.5949 6.73276C47.3471 6.73276 47.1602 6.65926 47.0342 6.51226C46.9082 6.36526 46.8452 6.14896 46.8452 5.86336L46.8452 4.86796L48.3509 4.86796ZM50.7008 8.57453C50.7008 8.44433 50.6651 8.34353 50.5937 8.27213C50.5181 8.20493 50.4152 8.17133 50.285 8.17133L46.6184 8.17133C46.484 8.17133 46.3832 8.20703 46.316 8.27843C46.2446 8.34983 46.2089 8.45063 46.2089 8.58083L46.2089 10.0991C46.2089 10.5863 46.3265 10.9622 46.5617 11.2268C46.7927 11.4914 47.1182 11.6237 47.5382 11.6237C47.8112 11.6237 48.0464 11.5628 48.2438 11.441C48.4412 11.3234 48.5924 11.1512 48.6974 10.9244C48.8024 10.6976 48.8549 10.4225 48.8549 10.0991L48.7604 10.1558L48.7604 10.3637C48.7604 10.5359 48.8024 10.685 48.8864 10.811C48.9704 10.9412 49.1027 11.0546 49.2833 11.1512L50.159 11.6237C50.2472 11.6741 50.3333 11.6972 50.4173 11.693C50.5013 11.6888 50.5706 11.6573 50.6252 11.5985C50.6756 11.5397 50.7008 11.4536 50.7008 11.3402C50.7008 11.2268 50.6777 11.1344 50.6315 11.063C50.5811 10.9916 50.5055 10.9286 50.4047 10.874L49.2329 10.2377C49.0901 10.1621 48.9956 10.0718 48.9494 9.96683C48.899 9.86603 48.8738 9.73583 48.8738 9.57623L48.8738 8.97773L50.285 8.97773C50.4152 8.97773 50.5181 8.94413 50.5937 8.87693C50.6651 8.80973 50.7008 8.70893 50.7008 8.57453ZM48.2753 8.97773L48.2753 9.96053C48.2753 10.2503 48.2165 10.4687 48.0989 10.6157C47.9771 10.7669 47.7965 10.8425 47.5571 10.8425C47.3219 10.8425 47.1455 10.7669 47.0279 10.6157C46.9061 10.4687 46.8452 10.2503 46.8452 9.96053L46.8452 8.97773L48.2753 8.97773ZM50.7134 14.4503C50.7134 14.0219 50.6189 13.646 50.4299 13.3226C50.2409 13.0034 49.9763 12.7556 49.6361 12.5792C49.2917 12.4028 48.8885 12.3146 48.4265 12.3146C48.0779 12.3146 47.765 12.365 47.4878 12.4658C47.2064 12.5666 46.967 12.7094 46.7696 12.8942C46.568 13.0832 46.4147 13.3079 46.3097 13.5683C46.2005 13.8329 46.1459 14.1269 46.1459 14.4503C46.1459 14.8829 46.2404 15.2588 46.4294 15.578C46.6142 15.8972 46.8767 16.145 47.2169 16.3214C47.5571 16.4978 47.9582 16.586 48.4202 16.586C48.7688 16.586 49.0838 16.5356 49.3652 16.4348C49.6466 16.334 49.8881 16.1891 50.0897 16.0001C50.2913 15.8153 50.4467 15.5906 50.5559 15.326C50.6609 15.0656 50.7134 14.7737 50.7134 14.4503ZM50.0204 14.4503C50.0204 14.7233 49.9574 14.9543 49.8314 15.1433C49.7054 15.3365 49.5227 15.4835 49.2833 15.5843C49.0439 15.6893 48.7583 15.7418 48.4265 15.7418C47.9225 15.7418 47.5319 15.6284 47.2547 15.4016C46.9775 15.179 46.8389 14.8619 46.8389 14.4503C46.8389 14.1815 46.9019 13.9505 47.0279 13.7573C47.1497 13.5641 47.3303 13.415 47.5697 13.31C47.8049 13.2092 48.0905 13.1588 48.4265 13.1588C48.9263 13.1588 49.3169 13.2722 49.5983 13.499C49.8797 13.7258 50.0204 14.0429 50.0204 14.4503ZM50.6945 17.0015C50.6987 16.8839 50.6672 16.7915 50.6 16.7243C50.5328 16.6571 50.4467 16.6235 50.3417 16.6235C50.2619 16.6235 50.1926 16.6487 50.1338 16.6991C50.0708 16.7453 50.0372 16.8146 50.033 16.907L50.0204 17.096C50.0078 17.2808 49.9511 17.4194 49.8503 17.5118C49.7453 17.6084 49.5962 17.6567 49.403 17.6567L46.568 17.6567C46.4336 17.6567 46.3328 17.6903 46.2656 17.7575C46.1942 17.8289 46.1585 17.9297 46.1585 18.0599C46.1585 18.1901 46.1942 18.2888 46.2656 18.356C46.3328 18.4274 46.4336 18.4631 46.568 18.4631L49.3967 18.4631C49.6613 18.4631 49.886 18.4148 50.0708 18.3182C50.2556 18.2258 50.4005 18.0872 50.5055 17.9024C50.6063 17.7176 50.6651 17.4887 50.6819 17.2157L50.6945 17.0015ZM50.6504 19.8524C50.6504 19.7138 50.6147 19.6067 50.5433 19.5311C50.4677 19.4597 50.3606 19.424 50.222 19.424L46.6373 19.424C46.4987 19.424 46.3937 19.4597 46.3223 19.5311C46.2467 19.6067 46.2089 19.7138 46.2089 19.8524L46.2089 22.1015C46.2089 22.2065 46.2362 22.2863 46.2908 22.3409C46.3454 22.3997 46.4231 22.4291 46.5239 22.4291C46.6289 22.4291 46.7108 22.3997 46.7696 22.3409C46.8242 22.2863 46.8515 22.2065 46.8515 22.1015L46.8515 20.1989L48.0737 20.1989L48.0737 21.9629C48.0737 22.0721 48.101 22.154 48.1556 22.2086C48.2102 22.2632 48.29 22.2905 48.395 22.2905C48.5 22.2905 48.5798 22.2632 48.6344 22.2086C48.689 22.154 48.7163 22.0721 48.7163 21.9629L48.7163 20.1989L50.0078 20.1989L50.0078 22.1015C50.0078 22.2065 50.0351 22.2863 50.0897 22.3409C50.1443 22.3997 50.2241 22.4291 50.3291 22.4291C50.4341 22.4291 50.5139 22.3997 50.5685 22.3409C50.6231 22.2863 50.6504 22.2065 50.6504 22.1015L50.6504 19.8524ZM50.7134 25.2433C50.7134 24.7813 50.621 24.3844 50.4362 24.0526C50.2472 23.725 49.9826 23.473 49.6424 23.2966C49.298 23.1202 48.8927 23.032 48.4265 23.032C48.0779 23.032 47.765 23.0824 47.4878 23.1832C47.2064 23.284 46.967 23.4289 46.7696 23.6179C46.568 23.8069 46.4147 24.0379 46.3097 24.3109C46.2005 24.5881 46.1459 24.8989 46.1459 25.2433C46.1459 25.4743 46.1753 25.7011 46.2341 25.9237C46.2929 26.1463 46.3769 26.3416 46.4861 26.5096C46.5407 26.5978 46.6079 26.6566 46.6877 26.686C46.7633 26.7154 46.8389 26.7217 46.9145 26.7049C46.9859 26.6881 47.0468 26.6524 47.0972 26.5978C47.1476 26.5474 47.177 26.4823 47.1854 26.4025C47.1896 26.3269 47.1623 26.2429 47.1035 26.1505C47.0195 26.0203 46.9586 25.8796 46.9208 25.7284C46.883 25.5772 46.8641 25.4239 46.8641 25.2685C46.8641 24.9703 46.925 24.7183 47.0468 24.5125C47.1686 24.3067 47.345 24.1513 47.576 24.0463C47.807 23.9413 48.0905 23.8888 48.4265 23.8888C48.7583 23.8888 49.0418 23.9413 49.277 24.0463C49.5122 24.1513 49.6907 24.3067 49.8125 24.5125C49.9343 24.7183 49.9952 24.9703 49.9952 25.2685C49.9952 25.4281 49.9763 25.5856 49.9385 25.741C49.8965 25.8964 49.8335 26.0434 49.7495 26.182C49.6949 26.2744 49.6718 26.3563 49.6802 26.4277C49.6844 26.5033 49.7096 26.5663 49.7558 26.6167C49.802 26.6671 49.8608 26.7007 49.9322 26.7175C49.9994 26.7343 50.0708 26.7301 50.1464 26.7049C50.2178 26.6797 50.2808 26.6293 50.3354 26.5537C50.4572 26.3857 50.5517 26.1841 50.6189 25.9489C50.6819 25.7179 50.7134 25.4827 50.7134 25.2433ZM50.7008 28.8716C50.7008 28.7414 50.6651 28.6406 50.5937 28.5692C50.5181 28.502 50.4152 28.4684 50.285 28.4684L46.883 28.4684L46.883 27.2399C46.883 27.1307 46.8536 27.0446 46.7948 26.9816C46.7318 26.9228 46.6478 26.8934 46.5428 26.8934C46.4336 26.8934 46.3517 26.9228 46.2971 26.9816C46.2383 27.0446 46.2089 27.1307 46.2089 27.2399L46.2089 30.5033C46.2089 30.6125 46.2383 30.6965 46.2971 30.7553C46.3517 30.8183 46.4336 30.8498 46.5428 30.8498C46.6478 30.8498 46.7318 30.8183 46.7948 30.7553C46.8536 30.6965 46.883 30.6125 46.883 30.5033L46.883 29.2748L50.285 29.2748C50.4152 29.2748 50.5181 29.2412 50.5937 29.174C50.6651 29.1068 50.7008 29.006 50.7008 28.8716Z" fill="#19181D"/>
</svg>
